<svg width="120" height="120" viewBox="0 0 120 120" fill="none" xmlns="http://www.w3.org/2000/svg">
<g clip-path="url(#clip0_912_5999)">
<rect width="120" height="120" fill="#F19000"/>
<rect width="120" height="120" fill="#FFF8EF"/>
<path d="M76.8594 96.2618C56.8324 105.573 33.0488 96.8865 23.7374 76.8594C14.426 56.8324 23.1127 33.0488 43.1398 23.7374C63.1669 14.426 86.9504 23.1127 96.2618 43.1398C105.573 63.1669 96.8865 86.9504 76.8594 96.2618Z" fill="#FE9A03"/>
<path d="M37.6769 63.613C38.6977 66.5457 41.2656 71.6558 45.9131 78.1091C50.7803 85.0144 57.7414 92.8309 65.2836 99.6502C48.3993 101.905 31.2992 93.1202 23.7391 76.8599C19.643 68.05 19.0301 58.5127 21.3331 49.8008L37.3325 62.8818C37.4453 63.1243 37.5603 63.3678 37.6769 63.613Z" fill="#D14A01"/>
<path d="M65.4708 99.6241C69.319 99.0916 73.1541 97.9848 76.8604 96.2615C81.9093 93.9141 86.2374 90.6469 89.7381 86.752C77.685 84.2469 53.1518 76.64 37.4748 62.9977C31.1754 49.449 30.3903 38.0218 30.8779 32.5781C26.2771 37.4675 23.0206 43.412 21.332 49.8L37.4748 62.9977C39.0906 68.294 46.9317 82.8376 65.4708 99.6241Z" fill="#EB6A02"/>
<path d="M67.4054 20.6982C70.0882 23.7028 72.381 27.1472 74.167 30.9886C83.9517 52.0337 74.8234 77.0269 53.778 86.8118C47.4884 89.7361 40.8462 90.9709 34.3628 90.7034C29.9751 87.0447 26.3056 82.3834 23.7374 76.8597C14.4259 56.8325 23.1126 33.0491 43.1398 23.7376C51.017 20.0752 59.475 19.1968 67.4054 20.6982Z" fill="#FFD04E" fill-opacity="0.3"/>
<path d="M48.5547 21.6768C67.2795 16.0593 87.7776 24.8924 96.2616 43.14C101.068 53.4774 101.079 64.8157 97.2106 74.6475C91.5966 72.3005 80.9149 65.3277 69.4477 52.9907C61.0104 43.9137 53.4645 31.7792 48.5547 21.6768Z" fill="#2A6007"/>
</g>
<defs>
<clipPath id="clip0_912_5999">
<rect width="120" height="120" fill="white"/>
</clipPath>
</defs>
</svg>
