<svg width="72" height="72" viewBox="0 0 72 72" fill="none" xmlns="http://www.w3.org/2000/svg">
<circle cx="36" cy="36" r="35.5" stroke="#FE9A03"/>
<path d="M32 46.5C30.5 45 31.6667 43.3333 32.5 42.5L34 41M34 41L40.5 34.5C42.9 31.7 45.8334 31 47 31C51.8 31 53 34.6667 53 36.5V52.5H45V37L37.5 44.5M34 41L37.5 44.5M37.5 44.5L35.5 46.5" stroke="#FE9A03" stroke-width="1.6" stroke-linejoin="round"/>
<path d="M23.5 46.5H39.5V51C39.5 52 39 52.5 36 52.5H25C24.5 52.5 23.5 52.1 23.5 50.5V31H20.5C20 31 19 31.4 19 33V45C19 45.5 19.4 46.5 21 46.5H23.5Z" stroke="#FE9A03" stroke-width="1.6" stroke-linejoin="round"/>
<path d="M50.5 24V25.5C50.5 29.9 47.8333 31 46.5 31C42.5 31.4 41.5 28.1667 41.5 26.5V19H50.5V24ZM50.5 24H37" stroke="#FE9A03" stroke-width="1.6" stroke-linejoin="round"/>
</svg>
