<svg viewBox="0 0 72 72" fill="none" xmlns="http://www.w3.org/2000/svg">
<circle cx="36" cy="36" r="35.5" stroke="#FE9A03"/>
<path d="M45 27L51.5 22L55 35.5L52 37.5L45 27Z" stroke="#FE9A03" stroke-width="1.3" stroke-linejoin="round"/>
<path d="M45 27.5C44.5 28 42.9 28.8 40.5 28C38.1 27.2 37.5 27 37.5 27L31.5 30C32 31.1667 34 33 38 31L47 38C47.1567 38.1567 47.3648 38.4311 47.5 38.761M45 40.5C45.6667 40.6667 47.1 40.8 47.5 40C47.712 39.576 47.6525 39.1332 47.5 38.761M45 40.5L38.5 35.5M45 40.5C45.1667 41 45.4 42.1 45 42.5C44.7419 42.8871 44.0443 43.3941 43 43.0465M37 38.5L42 42.5C42.3613 42.771 42.6954 42.9451 43 43.0465M43 43.0465C43 44.1976 42.4 46.2 40 45M40 45L35 41.5M40 45C40 45.8333 39.5 47.5 37.5 47C35.5 46.5 35 45.5 34.5 45.5M47.5 38.761L50.5 36" stroke="#FE9A03" stroke-width="1.3" stroke-linejoin="round"/>
<path d="M36 28C35.6 27.6 34.5 27.1667 34 27L26.5 28M26.5 28L27 27L20.5 22L17 36L20.5 37.5L21 36.7083M26.5 28L21 36.7083M21 36.7083C21 36.9417 22.5 38.1667 23 38.5" stroke="#FE9A03" stroke-width="1.3" stroke-linejoin="round"/>
<rect x="20.8477" y="40.0806" width="5.52941" height="3.08257" rx="1.54129" transform="rotate(-42.4595 20.8477 40.0806)" stroke="#FE9A03" stroke-width="1.2"/>
<rect x="23.2141" y="42.4531" width="7.01569" height="3.20582" rx="1.60291" transform="rotate(-42.4595 23.2141 42.4531)" stroke="#FE9A03" stroke-width="1.2"/>
<rect x="26.0535" y="44.3911" width="6.42958" height="3.27571" rx="1.63785" transform="rotate(-42.4595 26.0535 44.3911)" stroke="#FE9A03" stroke-width="1.2"/>
<rect x="29.1917" y="45.9805" width="5.15019" height="3.18643" rx="1.59322" transform="rotate(-42.4595 29.1917 45.9805)" stroke="#FE9A03" stroke-width="1.2"/>
</svg>
