<svg width="72" height="72" viewBox="0 0 72 72" fill="none" xmlns="http://www.w3.org/2000/svg">
<circle cx="36" cy="36" r="35.5" stroke="#FE9A03"/>
<path d="M23 31.4998C23 21.8998 31.3333 19.8331 35.5 19.9998V24.5C34.5 24.5 33 25 33 26.5C33 27.1667 33 28.5 35.5 28.5V31M23 31.4998C23 33.9999 24.3 39.7 29.5 42.5V45H40V42.5C42.3333 41.5 47 37.8 47 31H43C43 30.1667 42.6 28.5 41 28.5C40.3333 28.5 39 29 39 31H35.5M23 31.4998H28C27.8333 30.4999 28 28.5 30 28.5C30.6667 28.5 32 29 32 31H35.5M35.5 31V35C34.6667 35 33 35.4 33 37C33 38.6 34.6667 39 35.5 39V44.5" stroke="#FE9A03" stroke-width="1.4" stroke-linejoin="round"/>
<mask id="path-3-inside-1_1069_2590" fill="white">
<path d="M40 50C40 50.6566 39.8707 51.3068 39.6194 51.9134C39.3681 52.52 38.9998 53.0712 38.5355 53.5355C38.0712 53.9998 37.52 54.3681 36.9134 54.6194C36.3068 54.8707 35.6566 55 35 55C34.3434 55 33.6932 54.8707 33.0866 54.6194C32.48 54.3681 31.9288 53.9998 31.4645 53.5355C31.0002 53.0712 30.6319 52.52 30.3806 51.9134C30.1293 51.3068 30 50.6566 30 50L35 50H40Z"/>
</mask>
<path d="M40 50C40 50.6566 39.8707 51.3068 39.6194 51.9134C39.3681 52.52 38.9998 53.0712 38.5355 53.5355C38.0712 53.9998 37.52 54.3681 36.9134 54.6194C36.3068 54.8707 35.6566 55 35 55C34.3434 55 33.6932 54.8707 33.0866 54.6194C32.48 54.3681 31.9288 53.9998 31.4645 53.5355C31.0002 53.0712 30.6319 52.52 30.3806 51.9134C30.1293 51.3068 30 50.6566 30 50L35 50H40Z" stroke="#FE9A03" stroke-width="2.8" mask="url(#path-3-inside-1_1069_2590)"/>
<path d="M42 16V18.5C41 18.3333 39 18.5 39 20.5C39 22.5 41 22.6667 42 22.5V25.5H45.5C45.3333 24.8333 45.5 23 47.5 23C49.5 23 49.6667 24.8333 49.5 25.5H52.5V16H42Z" stroke="#FE9A03" stroke-width="1.4" stroke-linejoin="round"/>
<rect x="28.65" y="47.65" width="12.7" height="2.7" rx="1.35" fill="white" stroke="#FE9A03" stroke-width="1.3"/>
<rect x="27.7" y="44.7" width="14.6" height="3.1" rx="1.55" fill="white" stroke="#FE9A03" stroke-width="1.4"/>
</svg>
