<svg width="72" height="72" viewBox="0 0 72 72" fill="none" xmlns="http://www.w3.org/2000/svg">
<circle cx="36" cy="36" r="35.5" stroke="#FE9A03"/>
<path d="M23.5 38C23.5 39.6667 23.5 44 23.5 44C23.5 44.6667 23.9 46.2 25.5 47L35.5 53C35.6932 53.0966 36.0654 53.2155 36.5 53.2207M49.5 38.5V45C49.5 45.4 49.1667 45.8333 49 46L37.5 53C37.1636 53.1682 36.8154 53.2244 36.5 53.2207M36.5 38V53.2207" stroke="#FE9A03" stroke-width="1.6"/>
<path d="M23.5 30.5L17.5 34.5L29 41.5L36 38M23.5 30.5L17 26.5L29.5 19L37 22.5M23.5 30.5L37 22.5M23.5 30.5L36 38M36 38L44 42L56 34.5L50 30.5M36 38L50 30.5M50 30.5L55.5 26.5L43.5 19L37 22.5M50 30.5L37 22.5" stroke="#FE9A03" stroke-width="1.6" stroke-linejoin="round"/>
</svg>
