<svg width="72" height="72" viewBox="0 0 72 72" fill="none" xmlns="http://www.w3.org/2000/svg">
<circle cx="36" cy="36" r="35.5" stroke="#FE9A03"/>
<circle cx="35.5" cy="35.5" r="11.7" stroke="#FE9A03" stroke-width="1.6"/>
<path d="M39.5787 19.1075C39.7457 19.2345 39.9559 19.2908 40.164 19.2643L45.2474 18.6169L47.2285 23.343C47.3096 23.5365 47.4635 23.6904 47.657 23.7715L52.3831 25.7526L51.7357 30.836C51.7092 31.0441 51.7655 31.2543 51.8925 31.4213L54.9949 35.5L51.8925 39.5787C51.7655 39.7457 51.7092 39.9559 51.7357 40.164L52.3831 45.2474L47.657 47.2285C47.4635 47.3096 47.3096 47.4635 47.2285 47.657L45.2474 52.3831L40.164 51.7357C39.9559 51.7092 39.7457 51.7655 39.5787 51.8925L35.5 54.9949L31.4213 51.8925C31.2543 51.7655 31.0441 51.7092 30.836 51.7357L25.7526 52.3831L23.7715 47.657C23.6904 47.4635 23.5365 47.3096 23.343 47.2285L18.6169 45.2474L19.2643 40.164C19.2908 39.9559 19.2345 39.7457 19.1075 39.5787L16.0051 35.5L19.1075 31.4213C19.2345 31.2543 19.2908 31.0441 19.2643 30.836L18.6169 25.7526L23.343 23.7715C23.5365 23.6904 23.6904 23.5365 23.7715 23.343L25.7526 18.6169L30.836 19.2643C31.0441 19.2908 31.2543 19.2345 31.4213 19.1075L35.5 16.0051L39.5787 19.1075Z" stroke="#FE9A03" stroke-width="1.6" stroke-linejoin="round"/>
<path d="M30 35L34 39L41 32" stroke="#FE9A03" stroke-width="1.6" stroke-linejoin="round"/>
</svg>
