<svg viewBox="0 0 50 50" fill="none" xmlns="http://www.w3.org/2000/svg">
<path d="M24.9993 23.9596C23.618 23.9596 22.2933 23.4109 21.3165 22.4342C20.3397 21.4574 19.791 20.1326 19.791 18.7513C19.791 17.37 20.3397 16.0452 21.3165 15.0685C22.2933 14.0917 23.618 13.543 24.9993 13.543C26.3807 13.543 27.7054 14.0917 28.6822 15.0685C29.6589 16.0452 30.2077 17.37 30.2077 18.7513C30.2077 19.4353 30.073 20.1125 29.8112 20.7444C29.5495 21.3764 29.1658 21.9505 28.6822 22.4342C28.1986 22.9178 27.6244 23.3014 26.9925 23.5632C26.3606 23.8249 25.6833 23.9596 24.9993 23.9596ZM24.9993 4.16797C21.1316 4.16797 17.4223 5.70442 14.6874 8.43933C11.9525 11.1742 10.416 14.8836 10.416 18.7513C10.416 29.6888 24.9993 45.8346 24.9993 45.8346C24.9993 45.8346 39.5827 29.6888 39.5827 18.7513C39.5827 14.8836 38.0462 11.1742 35.3113 8.43933C32.5764 5.70442 28.8671 4.16797 24.9993 4.16797Z" fill="#FE9A03"/>
</svg>
