<svg viewBox="0 0 195 40" fill="none" xmlns="http://www.w3.org/2000/svg">
<path d="M25.0956 33.4885C16.2564 37.5774 5.75925 33.7628 1.64954 24.9684C-2.46017 16.174 1.37383 5.73007 10.213 1.64118C19.0522 -2.44771 29.5494 1.36687 33.6591 10.1613C37.7688 18.9557 33.9348 29.3996 25.0956 33.4885Z" fill="#FE9A03"/>
<path d="M7.80103 19.1551C8.25161 20.443 9.38495 22.6869 11.4362 25.5208C13.5844 28.5531 16.6567 31.9855 19.9856 34.98C12.5335 35.97 4.98617 32.1125 1.64944 24.9722C-0.158414 21.1036 -0.428956 16.9155 0.587499 13.0898L7.64906 18.834C7.69882 18.9405 7.74961 19.0475 7.80103 19.1551Z" fill="#D14A01"/>
<path d="M20.0681 34.969C21.7666 34.7351 23.4592 34.2491 25.0951 33.4924C27.3234 32.4615 29.2337 31.0268 30.7788 29.3165C25.459 28.2164 14.631 24.876 7.71171 18.8854C4.93141 12.9358 4.58488 7.91782 4.80009 5.52734C2.76947 7.67438 1.33221 10.2848 0.586914 13.0899L7.71171 18.8854C8.42486 21.2111 11.8856 27.5976 20.0681 34.969Z" fill="#EB6A02"/>
<path d="M20.923 0.306589C22.1071 1.62601 23.119 3.13854 23.9073 4.82537C28.2259 14.0668 24.197 25.042 14.9083 29.3388C12.1323 30.6229 9.20073 31.1652 6.33921 31.0477C4.40264 29.4411 2.78307 27.3941 1.64955 24.9685C-2.46018 16.1741 1.3738 5.73019 10.213 1.64128C13.6897 0.0330227 17.4228 -0.352686 20.923 0.306589Z" fill="#FFD04E" fill-opacity="0.3"/>
<path d="M12.6025 0.736327C20.867 -1.73046 29.914 2.14838 33.6586 10.1613C35.7799 14.7008 35.7848 19.6797 34.0774 23.9971C31.5996 22.9665 26.8851 19.9046 21.8239 14.4871C18.1 10.5011 14.7695 5.17255 12.6025 0.736327Z" fill="#2A6007"/>
<path d="M48.5713 3.87966H55.8807L63.0759 22.7781L70.3473 3.87966H77.5806V30.8556H73.0122V8.45185H72.936L64.751 30.8556H61.4009L53.2158 8.45185H53.1397V30.8556H48.5713V3.87966Z" fill="#D91717"/>
<path d="M92.9906 28.3409H92.8764C92.2165 29.4077 91.3789 30.1698 90.3637 30.627C89.3485 31.0842 88.2318 31.3128 87.0136 31.3128C86.176 31.3128 85.3512 31.1985 84.539 30.9699C83.7523 30.7413 83.0416 30.3984 82.4071 29.9412C81.798 29.4839 81.3031 28.9124 80.9224 28.2266C80.5417 27.5408 80.3513 26.7406 80.3513 25.8262C80.3513 24.8355 80.529 23.9973 80.8843 23.3115C81.2396 22.6003 81.7092 22.016 82.2929 21.5588C82.902 21.0762 83.6 20.6952 84.3868 20.4158C85.1735 20.1363 85.9857 19.9331 86.8232 19.8061C87.6862 19.6537 88.5491 19.5648 89.412 19.5394C90.2749 19.4886 91.0871 19.4632 91.8485 19.4632H92.9906V18.9679C92.9906 17.8248 92.5972 16.9739 91.8104 16.4151C91.0236 15.8309 90.0211 15.5388 88.8029 15.5388C87.8384 15.5388 86.9374 15.7166 86.0999 16.0722C85.2624 16.4024 84.539 16.8596 83.9299 17.4438L81.5315 15.0434C82.5467 13.9766 83.7269 13.2273 85.072 12.7954C86.4425 12.3382 87.8511 12.1096 89.2978 12.1096C90.5922 12.1096 91.6835 12.262 92.5718 12.5668C93.4601 12.8462 94.1961 13.2146 94.7798 13.6718C95.3636 14.129 95.8077 14.6624 96.1123 15.272C96.4422 15.8563 96.6707 16.4532 96.7976 17.0628C96.9498 17.6724 97.0387 18.2694 97.064 18.8536C97.0894 19.4124 97.1021 19.9077 97.1021 20.3396V30.8556H92.9906V28.3409ZM92.7241 22.6638H91.7723C91.1378 22.6638 90.4272 22.6892 89.6404 22.74C88.8536 22.7908 88.1049 22.9178 87.3943 23.121C86.709 23.2988 86.1253 23.5782 85.6431 23.9592C85.1608 24.3402 84.9197 24.8482 84.9197 25.4833C84.9197 25.9151 85.0086 26.2834 85.1862 26.5882C85.3893 26.8676 85.6431 27.1089 85.9476 27.3121C86.2522 27.5154 86.5948 27.6678 86.9755 27.7694C87.3562 27.8456 87.7369 27.8837 88.1176 27.8837C89.7165 27.8837 90.884 27.5154 91.62 26.7787C92.3561 26.0167 92.7241 24.988 92.7241 23.6925V22.6638Z" fill="#D91717"/>
<path d="M119.111 12.5668V29.2172C119.111 30.8683 118.908 32.3543 118.502 33.6751C118.095 35.0214 117.461 36.1517 116.598 37.0662C115.761 38.006 114.695 38.7299 113.4 39.238C112.106 39.746 110.57 40 108.794 40C107.093 40 105.482 39.7841 103.959 39.3523C102.436 38.9204 101.027 38.133 99.7331 36.99L102.474 33.256C103.388 34.0942 104.34 34.742 105.329 35.1992C106.319 35.6564 107.461 35.885 108.756 35.885C109.847 35.885 110.761 35.7326 111.497 35.4278C112.258 35.123 112.855 34.7039 113.286 34.1704C113.743 33.637 114.06 32.9893 114.238 32.2273C114.441 31.4906 114.542 30.6651 114.542 29.7507V28.4171H114.466C113.806 29.3061 112.931 29.9793 111.839 30.4365C110.748 30.8683 109.631 31.0842 108.489 31.0842C107.119 31.0842 105.875 30.8429 104.758 30.3603C103.642 29.8523 102.677 29.1791 101.865 28.3409C101.078 27.5027 100.469 26.512 100.038 25.369C99.6062 24.2259 99.3905 23.0067 99.3905 21.7112C99.3905 20.365 99.5935 19.1076 99.9996 17.9392C100.406 16.7707 101.002 15.7547 101.789 14.891C102.576 14.0274 103.515 13.3543 104.606 12.8716C105.723 12.3636 106.992 12.1096 108.413 12.1096C109.707 12.1096 110.913 12.3636 112.03 12.8716C113.146 13.3543 114.035 14.1671 114.695 15.3101H114.771V12.5668H119.111ZM109.365 16.2246C108.553 16.2246 107.817 16.3643 107.157 16.6437C106.497 16.8977 105.926 17.266 105.444 17.7486C104.987 18.2059 104.619 18.7774 104.34 19.4632C104.086 20.1236 103.959 20.8603 103.959 21.6731C103.959 22.4097 104.086 23.0956 104.34 23.7306C104.619 24.3656 104.999 24.9244 105.482 25.4071C105.964 25.8897 106.535 26.2707 107.195 26.5501C107.855 26.8295 108.565 26.9692 109.327 26.9692C110.164 26.9692 110.913 26.8295 111.573 26.5501C112.258 26.2707 112.829 25.9024 113.286 25.4452C113.768 24.9626 114.136 24.391 114.39 23.7306C114.644 23.0702 114.771 22.3589 114.771 21.5969C114.771 19.9966 114.288 18.7012 113.324 17.7105C112.36 16.7199 111.04 16.2246 109.365 16.2246Z" fill="#D91717"/>
<path d="M127.139 15.1196H127.215C127.57 14.3576 128.192 13.6718 129.081 13.0621C129.969 12.4271 131.136 12.1096 132.583 12.1096C133.801 12.1096 134.829 12.3128 135.667 12.7192C136.53 13.1256 137.228 13.6591 137.76 14.3195C138.293 14.9799 138.674 15.742 138.903 16.6056C139.131 17.4692 139.245 18.371 139.245 19.3108V30.8556H134.677V21.5969C134.677 21.0889 134.651 20.5301 134.601 19.9204C134.55 19.2854 134.41 18.7012 134.182 18.1678C133.979 17.6089 133.649 17.1517 133.192 16.7961C132.735 16.4151 132.113 16.2246 131.327 16.2246C130.565 16.2246 129.918 16.3516 129.385 16.6056C128.878 16.8596 128.446 17.2025 128.091 17.6343C127.761 18.0662 127.52 18.5615 127.367 19.1203C127.215 19.6791 127.139 20.2634 127.139 20.873V30.8556H122.571V2.05078H127.139V15.1196Z" fill="#D91717"/>
<path d="M142.718 12.5668H147.286V15.4625H147.362C147.87 14.3957 148.593 13.5702 149.532 12.9859C150.471 12.4017 151.55 12.1096 152.768 12.1096C153.048 12.1096 153.314 12.135 153.568 12.1858C153.847 12.2366 154.126 12.3001 154.405 12.3763V16.7961C154.025 16.6945 153.644 16.6183 153.263 16.5675C152.908 16.4913 152.553 16.4532 152.197 16.4532C151.131 16.4532 150.268 16.6564 149.609 17.0628C148.974 17.4438 148.479 17.8884 148.124 18.3964C147.794 18.9044 147.565 19.4124 147.439 19.9204C147.337 20.4285 147.286 20.8095 147.286 21.0635V30.8556H142.718V12.5668Z" fill="#D91717"/>
<path d="M158.787 23.3115C158.939 24.6831 159.472 25.75 160.386 26.512C161.3 27.274 162.404 27.6551 163.698 27.6551C164.84 27.6551 165.792 27.4265 166.553 26.9692C167.34 26.4866 168.025 25.8897 168.609 25.1785L171.883 27.6551C170.817 28.9759 169.624 29.9158 168.304 30.4746C166.985 31.0334 165.601 31.3128 164.155 31.3128C162.784 31.3128 161.49 31.0842 160.272 30.627C159.053 30.1698 158 29.522 157.112 28.6838C156.224 27.8456 155.513 26.8422 154.98 25.6738C154.472 24.4799 154.219 23.1591 154.219 21.7112C154.219 20.2634 154.472 18.9552 154.98 17.7867C155.513 16.5929 156.224 15.5769 157.112 14.7386C158 13.9004 159.053 13.2527 160.272 12.7954C161.49 12.3382 162.784 12.1096 164.155 12.1096C165.424 12.1096 166.579 12.3382 167.619 12.7954C168.685 13.2273 169.586 13.8623 170.322 14.7005C171.084 15.5388 171.667 16.5802 172.073 17.8248C172.505 19.0441 172.721 20.4539 172.721 22.0541V23.3115H158.787ZM168.152 19.8823C168.127 18.5107 167.708 17.4438 166.896 16.6818C166.084 15.9198 164.954 15.5388 163.508 15.5388C162.137 15.5388 161.046 15.9325 160.234 16.7199C159.447 17.5073 158.965 18.5615 158.787 19.8823H168.152Z" fill="#D91717"/>
<path d="M175.28 2.05078H179.848V14.891H179.962C180.191 14.5862 180.482 14.2814 180.838 13.9766C181.193 13.6464 181.625 13.3416 182.132 13.0621C182.64 12.7827 183.224 12.5541 183.883 12.3763C184.569 12.1985 185.33 12.1096 186.168 12.1096C187.462 12.1096 188.655 12.3636 189.746 12.8716C190.837 13.3543 191.764 14.0274 192.525 14.891C193.312 15.7547 193.921 16.7707 194.353 17.9392C194.784 19.1076 195 20.365 195 21.7112C195 23.0575 194.797 24.3148 194.391 25.4833C193.985 26.6517 193.388 27.6678 192.601 28.5314C191.815 29.395 190.863 30.0809 189.746 30.5889C188.629 31.0715 187.373 31.3128 185.977 31.3128C184.683 31.3128 183.477 31.0715 182.361 30.5889C181.244 30.0809 180.356 29.2553 179.696 28.1123H179.62V30.8556H175.28V2.05078ZM190.431 21.7112C190.431 21 190.305 20.3142 190.051 19.6537C189.822 18.9933 189.467 18.4091 188.985 17.9011C188.528 17.393 187.97 16.9866 187.31 16.6818C186.65 16.377 185.901 16.2246 185.064 16.2246C184.226 16.2246 183.477 16.377 182.817 16.6818C182.158 16.9866 181.587 17.393 181.104 17.9011C180.647 18.4091 180.292 18.9933 180.038 19.6537C179.81 20.3142 179.696 21 179.696 21.7112C179.696 22.4224 179.81 23.1083 180.038 23.7687C180.292 24.4291 180.647 25.0134 181.104 25.5214C181.587 26.0294 182.158 26.4358 182.817 26.7406C183.477 27.0454 184.226 27.1978 185.064 27.1978C185.901 27.1978 186.65 27.0454 187.31 26.7406C187.97 26.4358 188.528 26.0294 188.985 25.5214C189.467 25.0134 189.822 24.4291 190.051 23.7687C190.305 23.1083 190.431 22.4224 190.431 21.7112Z" fill="#D91717"/>
</svg>
