<svg viewBox="0 0 50 50" fill="none" xmlns="http://www.w3.org/2000/svg">
<path d="M8.33268 41.6654C7.18685 41.6654 6.20629 41.2577 5.39102 40.4424C4.57435 39.6258 4.16602 38.6445 4.16602 37.4987V12.4987C4.16602 11.3529 4.57435 10.3723 5.39102 9.55703C6.20629 8.74036 7.18685 8.33203 8.33268 8.33203H41.666C42.8119 8.33203 43.7931 8.74036 44.6098 9.55703C45.425 10.3723 45.8327 11.3529 45.8327 12.4987V37.4987C45.8327 38.6445 45.425 39.6258 44.6098 40.4424C43.7931 41.2577 42.8119 41.6654 41.666 41.6654H8.33268ZM24.9994 26.7174C25.173 26.7174 25.3549 26.6911 25.5452 26.6383C25.7369 26.5869 25.9195 26.5091 26.0931 26.4049L40.8327 17.1862C41.1105 17.0126 41.3188 16.7959 41.4577 16.5362C41.5966 16.2751 41.666 15.9883 41.666 15.6758C41.666 14.9813 41.3709 14.4605 40.7806 14.1133C40.1903 13.7661 39.5827 13.7834 38.9577 14.1654L24.9994 22.9154L11.041 14.1654C10.416 13.7834 9.80838 13.7744 9.2181 14.1383C8.62782 14.5036 8.33268 15.0161 8.33268 15.6758C8.33268 16.023 8.40213 16.3265 8.54102 16.5862C8.6799 16.8473 8.88824 17.0473 9.16602 17.1862L23.9056 26.4049C24.0792 26.5091 24.2619 26.5869 24.4535 26.6383C24.6438 26.6911 24.8257 26.7174 24.9994 26.7174Z" fill="#FE9A03"/>
</svg>
