<svg viewBox="0 0 24 24" xmlns="http://www.w3.org/2000/svg">
<path d="M22.2071 2.45514C22.0909 2.3548 21.9495 2.28806 21.7982 2.26213C21.6469 2.23619 21.4914 2.25203 21.3484 2.30795L2.349 9.74326C2.07974 9.84797 1.85177 10.0373 1.69943 10.2828C1.54709 10.5283 1.47861 10.8166 1.50431 11.1043C1.53001 11.3921 1.64849 11.6637 1.84192 11.8783C2.03535 12.0929 2.29326 12.2389 2.57681 12.2942L7.49963 13.2608V18.7498C7.49866 19.0488 7.58751 19.3412 7.75466 19.5891C7.92182 19.837 8.15958 20.029 8.43713 20.1401C8.71424 20.2533 9.019 20.2805 9.31176 20.2181C9.60452 20.1557 9.87175 20.0067 10.0787 19.7905L12.4524 17.3286L16.2184 20.6248C16.4901 20.8658 16.8405 20.9992 17.2037 20.9998C17.3628 20.9997 17.521 20.9747 17.6724 20.9258C17.9199 20.8472 18.1425 20.7053 18.318 20.514C18.4935 20.3227 18.6158 20.0887 18.6728 19.8355L22.4781 3.28108C22.5121 3.13178 22.5049 2.97603 22.4571 2.83053C22.4094 2.68503 22.323 2.55527 22.2071 2.45514ZM16.4753 5.83014L8.07619 11.8451L3.42619 10.933L16.4753 5.83014ZM8.99963 18.7498V14.2986L11.3237 16.3367L8.99963 18.7498ZM17.2056 19.4998L9.45431 12.703L20.6106 4.70702L17.2056 19.4998Z"/>
</svg>
