<svg viewBox="0 0 25 25" xmlns="http://www.w3.org/2000/svg">
<path fill-rule="evenodd" clip-rule="evenodd" d="M24.3805 17.5678C23.8139 16.4266 23.0672 15.3841 22.1691 14.4803C21.8687 14.1409 21.5542 13.8142 21.2264 13.5011L21.1868 13.4626C21.0651 13.3444 20.9449 13.2246 20.8264 13.1032C22.0541 11.396 23.1046 9.56819 23.9618 7.64802L23.9962 7.57093L24.0201 7.48968C24.1337 7.11156 24.2628 6.39281 23.8045 5.74281C23.3295 5.07198 22.5701 4.95114 22.0607 4.95114H19.7201C19.23 4.92881 18.7454 5.06208 18.3357 5.33188C17.9259 5.60168 17.612 5.99419 17.4389 6.45323C16.9351 7.65285 16.3045 8.79512 15.5576 9.86052V7.11781C15.5576 6.76364 15.5243 6.16989 15.1441 5.66989C14.6899 5.06989 14.0326 4.95114 13.5764 4.95114H9.86178C9.37707 4.93999 8.90663 5.11568 8.5479 5.44184C8.18916 5.768 7.96961 6.21964 7.9347 6.70323L7.93158 6.7501V6.79698C7.93158 7.30218 8.13158 7.6751 8.29199 7.90948C8.36387 8.01468 8.43991 8.11052 8.48887 8.17093L8.49928 8.18448C8.55137 8.24906 8.58574 8.29177 8.62012 8.33968C8.71178 8.4626 8.84199 8.65427 8.87949 9.14802V10.6824C8.13384 9.43377 7.52245 8.10973 7.05553 6.73239L7.0472 6.70948L7.03887 6.6876C6.91178 6.35531 6.70866 5.87198 6.30137 5.50323C5.82637 5.07093 5.26387 4.95114 4.75241 4.95114H2.37741C1.8597 4.95114 1.23574 5.07198 0.770117 5.5626C0.312826 6.04593 0.260742 6.6251 0.260742 6.93135V7.07093L0.289909 7.20635C0.947514 10.2592 2.30265 13.1185 4.24928 15.5605C5.13926 16.964 6.3475 18.1379 7.776 18.9871C9.2045 19.8362 10.813 20.3368 12.4712 20.448L12.5139 20.4511H12.5576C13.3139 20.4511 14.1024 20.3855 14.6951 19.9907C15.4941 19.4574 15.5576 18.6397 15.5576 18.2314V17.0459C15.7628 17.2126 16.017 17.4355 16.3285 17.7355C16.7055 18.1126 17.0055 18.4397 17.2628 18.7251L17.4003 18.8772C17.6003 19.1001 17.7972 19.3199 17.9764 19.5001C18.2014 19.7261 18.4795 19.9751 18.8274 20.1595C19.2055 20.3584 19.6024 20.4491 20.0232 20.4491H22.3993C22.9003 20.4491 23.618 20.3303 24.1232 19.7449C24.6732 19.1074 24.6316 18.3251 24.4587 17.7636L24.4274 17.6626L24.3805 17.5678ZM18.4222 17.6782C18.0994 17.3173 17.767 16.9651 17.4253 16.622L17.4222 16.6189C16.0087 15.2564 15.3493 15.0199 14.8826 15.0199C14.6337 15.0199 14.3597 15.047 14.1816 15.2699C14.1014 15.3762 14.0488 15.5008 14.0285 15.6324C14.0033 15.7852 13.9922 15.94 13.9951 16.0949V18.2314C13.9951 18.497 13.9514 18.6084 13.8285 18.6897C13.6649 18.7991 13.316 18.8876 12.567 18.8876C11.1443 18.7908 9.76489 18.3577 8.54218 17.6239C7.31946 16.8902 6.28837 15.8767 5.53366 14.6668L5.52533 14.6532L5.51491 14.6407C3.70149 12.3836 2.43766 9.73577 1.82324 6.90635C1.82741 6.77093 1.85658 6.68864 1.90449 6.63864C1.95345 6.58656 2.07324 6.51364 2.37741 6.51364H4.75241C5.01595 6.51364 5.15345 6.57198 5.25241 6.66052C5.36283 6.7626 5.46074 6.93448 5.57741 7.24073C6.16074 8.95531 6.94824 10.5595 7.69512 11.7376C8.06803 12.3272 8.4347 12.8178 8.76595 13.1647C8.93158 13.3376 9.09303 13.4814 9.24824 13.5834C9.3972 13.6814 9.56699 13.7595 9.74199 13.7595C9.83366 13.7595 9.94095 13.7491 10.0441 13.7043C10.1554 13.6551 10.2471 13.57 10.3045 13.4626C10.4118 13.2668 10.442 12.9782 10.442 12.6001V9.08656C10.3868 8.23448 10.1295 7.75427 9.87949 7.41364C9.82886 7.34551 9.77677 7.27848 9.72324 7.2126L9.7097 7.19593C9.66528 7.14198 9.62289 7.08639 9.58262 7.02927C9.53134 6.96557 9.50048 6.88787 9.49408 6.80635C9.50225 6.72358 9.54175 6.64705 9.60449 6.59245C9.66723 6.53784 9.74847 6.50927 9.83158 6.5126H13.5764C13.791 6.5126 13.8628 6.56468 13.8993 6.61364C13.9514 6.68135 13.9951 6.82198 13.9951 7.11781V11.8345C13.9951 12.3949 14.2535 12.7741 14.6285 12.7741C15.0597 12.7741 15.3712 12.5126 15.9149 11.9689L15.9243 11.9584L15.9326 11.9491C17.1524 10.4619 18.149 8.80487 18.891 7.03031L18.8951 7.01781C18.9509 6.86102 19.0564 6.72678 19.1956 6.63556C19.3347 6.54435 19.4999 6.50116 19.666 6.5126H22.0618C22.3868 6.5126 22.493 6.59593 22.5285 6.64489C22.5649 6.69698 22.591 6.80843 22.5285 7.02718C21.6728 8.94005 20.6151 10.7559 19.3732 12.4439L19.3649 12.4564C19.2451 12.6407 19.1128 12.8449 19.0941 13.0782C19.0732 13.3303 19.1816 13.5584 19.3722 13.8043C19.5107 14.0084 19.7972 14.2886 20.0878 14.573L20.1149 14.6001C20.4191 14.898 20.7493 15.2209 21.0139 15.5334L21.0212 15.5407L21.0285 15.5491C21.8174 16.336 22.4735 17.2458 22.9712 18.2428C23.0503 18.5136 23.0024 18.6532 22.9399 18.7251C22.868 18.8084 22.7066 18.8866 22.4003 18.8866H20.0232C19.8612 18.8905 19.7009 18.8528 19.5576 18.7772C19.382 18.675 19.2226 18.5472 19.0847 18.398C18.9357 18.2491 18.7743 18.0689 18.5764 17.8491L18.4232 17.6782H18.4222Z"/>
</svg>
