<svg viewBox="0 0 13 24" xmlns="http://www.w3.org/2000/svg">
<path d="M11.3331 0.0052596H7.77745C3.24898 -0.0400545 2.67059 2.76276 2.67059 5.79614V8.00187H0.671564C0.581211 7.9898 0.489293 7.99873 0.402948 8.02795C0.316603 8.05717 0.238155 8.1059 0.173699 8.17036C0.109243 8.23482 0.0605124 8.31327 0.0312932 8.39962C0.0020739 8.48597 -0.0068479 8.5779 0.00522094 8.66826V12.6666C-0.0068479 12.7569 0.0020739 12.8488 0.0312932 12.9352C0.0605124 13.0215 0.109243 13.1 0.173699 13.1645C0.238155 13.2289 0.316603 13.2777 0.402948 13.3069C0.489293 13.3361 0.581211 13.345 0.671564 13.3329H2.67059V23.3287C2.65949 23.4192 2.66922 23.5111 2.69904 23.5973C2.72886 23.6835 2.77799 23.7617 2.84267 23.826C2.90734 23.8903 2.98586 23.9389 3.07222 23.9683C3.15857 23.9976 3.25049 24.0067 3.34093 23.9951H7.41229C7.80543 24.0404 8.12394 23.7219 7.99867 23.3287L8.00134 13.3329H11.3331C11.4234 13.345 11.5153 13.3361 11.6017 13.3069C11.688 13.2777 11.7665 13.2289 11.8309 13.1645C11.8954 13.1 11.9441 13.0215 11.9733 12.9352C12.0025 12.8488 12.0115 12.7569 11.9994 12.6666V8.66826C12.0115 8.5779 12.0025 8.48597 11.9733 8.39962C11.9441 8.31327 11.8954 8.23482 11.8309 8.17036C11.7665 8.1059 11.688 8.05717 11.6017 8.02795C11.5153 7.99873 11.4234 7.9898 11.3331 8.00187H7.99734L8.00134 6.00272C8.13061 5.15108 8.13061 5.28969 8.92089 5.33633H11.3051C11.4903 5.29502 11.6875 5.31768 11.8261 5.18307C11.9647 5.04846 12.0447 4.86453 11.9981 4.66995V0.671644C12.0104 0.581359 12.0016 0.489452 11.9726 0.403088C11.9436 0.316724 11.895 0.238234 11.8306 0.173739C11.7662 0.109243 11.6878 0.0604827 11.6015 0.0312591C11.5152 0.00203549 11.4234 -0.00686205 11.3331 0.0052596V0.0052596ZM10.6201 3.92893L8.94888 3.86496C6.87922 3.86496 6.70597 4.98848 6.70597 6.13866L6.70063 8.66559C6.70046 8.75917 6.71874 8.85185 6.75442 8.93836C6.79011 9.02486 6.8425 9.10347 6.9086 9.1697C6.9747 9.23593 7.05321 9.28847 7.13964 9.32432C7.22607 9.36017 7.31872 9.37862 7.41229 9.37862H10.6667V11.9535H7.41495C7.22609 11.9535 7.04494 12.0285 6.91127 12.1619C6.77759 12.2953 6.70232 12.4764 6.70197 12.6652L6.70063 22.6623H4.00328V12.6666C4.00328 12.2734 3.73541 11.9549 3.34093 11.9549H1.33791V9.37996H3.34093C3.43444 9.3801 3.52706 9.36181 3.6135 9.32613C3.69994 9.29046 3.7785 9.2381 3.84469 9.17204C3.97796 9.03743 4.00195 8.85618 4.00195 8.66692V5.79481C4.00195 2.80674 4.60565 1.38334 7.77611 1.38334H10.6187V3.92893H10.6201Z"/>
</svg>
