<svg viewBox="0 0 26 26" xmlns="http://www.w3.org/2000/svg">
<path d="M13 0.500977C6.1 0.500977 0.5 6.10098 0.5 13.001C0.5 19.901 6.1 25.501 13 25.501C19.9 25.501 25.5 19.901 25.5 13.001C25.5 6.10098 19.9 0.500977 13 0.500977ZM18.8 9.00098C18.6125 10.976 17.8 15.776 17.3875 17.9885C17.2125 18.926 16.8625 19.2385 16.5375 19.276C15.8125 19.3385 15.2625 18.801 14.5625 18.3385C13.4625 17.6135 12.8375 17.1635 11.775 16.4635C10.5375 15.651 11.3375 15.201 12.05 14.476C12.2375 14.2885 15.4375 11.376 15.5 11.1135C15.5087 11.0737 15.5075 11.0324 15.4966 10.9932C15.4857 10.954 15.4654 10.9181 15.4375 10.8885C15.3625 10.826 15.2625 10.851 15.175 10.8635C15.0625 10.8885 13.3125 12.051 9.9 14.351C9.4 14.6885 8.95 14.8635 8.55 14.851C8.1 14.8385 7.25 14.601 6.6125 14.3885C5.825 14.1385 5.2125 14.001 5.2625 13.5635C5.2875 13.3385 5.6 13.1135 6.1875 12.876C9.8375 11.2885 12.2625 10.2385 13.475 9.73848C16.95 8.28848 17.6625 8.03848 18.1375 8.03848C18.2375 8.03848 18.475 8.06348 18.625 8.18848C18.75 8.28848 18.7875 8.42598 18.8 8.52598C18.7875 8.60098 18.8125 8.82598 18.8 9.00098Z"/>
</svg>
