<svg viewBox="0 0 26 26" xmlns="http://www.w3.org/2000/svg">
<path fill-rule="evenodd" clip-rule="evenodd" d="M13.0002 25.6313C19.9765 25.6313 25.6318 19.976 25.6318 12.9997C25.6318 6.02351 19.9765 0.368164 13.0002 0.368164C6.024 0.368164 0.368652 6.02351 0.368652 12.9997C0.368652 19.976 6.024 25.6313 13.0002 25.6313ZM17.7513 17.1971H19.252C19.6803 17.1971 19.8954 16.9833 19.7665 16.5649C19.4434 15.9149 19.0165 15.3215 18.502 14.8083C18.3297 14.6046 18.1163 14.3957 17.9256 14.2091C17.7252 14.013 17.5499 13.8414 17.4737 13.7261C17.2474 13.4366 17.3119 13.3083 17.4737 13.0616C18.267 11.983 18.9424 10.8224 19.4882 9.59977C19.5836 9.27872 19.4882 9.05372 19.0382 9.05372H17.5375C17.3969 9.04396 17.2569 9.08047 17.139 9.15768C17.021 9.23489 16.9316 9.34856 16.8842 9.48135C16.4219 10.5874 15.8009 11.6202 15.0408 12.5471C14.6862 12.9011 14.5375 13.0077 14.3441 13.0077C14.2467 13.0077 14.1086 12.9011 14.1086 12.5794V9.59911C14.1086 9.21359 14.002 9.05306 13.6796 9.05306H11.3217C11.2254 9.04906 11.1313 9.08276 11.0595 9.147C10.9876 9.21125 10.9436 9.30098 10.9369 9.39714C10.9369 9.53757 11.0163 9.63649 11.1175 9.76266C11.2791 9.96394 11.4963 10.2346 11.5356 10.8537V13.0616C11.5356 13.5439 11.4513 13.6294 11.2579 13.6294C10.7533 13.6294 9.51055 11.7649 8.78226 9.62148C8.63095 9.22477 8.49213 9.05306 8.1066 9.05306H6.6066C6.17766 9.05306 6.09213 9.25701 6.09213 9.48201C6.48404 11.3011 7.29502 13.0037 8.46055 14.4544C8.95142 15.2414 9.62225 15.9005 10.4178 16.3775C11.2133 16.8545 12.1107 17.1356 13.0362 17.1978C13.9902 17.1978 14.1086 16.984 14.1086 16.6189V15.2689C14.1086 14.8406 14.1934 14.755 14.5046 14.755C14.7296 14.755 15.1053 14.8616 15.9948 15.7189C16.2989 16.0232 16.5274 16.2776 16.7135 16.4848C17.1502 16.971 17.3532 17.1971 17.7513 17.1971Z"/>
</svg>
